<?xml version="1.0" standalone="no"?>
<!DOCTYPE svg PUBLIC "-//W3C//DTD SVG 1.1//EN"
  "http://www.w3.org/Graphics/SVG/1.1/DTD/svg11.dtd">
<svg width="22mm" height="98mm" viewBox="1 8 22 98" xmlns="http://www.w3.org/2000/svg" version="1.1">
	<title>svgOutput</title>
	<desc>made with tinkercad</desc>
<path d="M 4.348339080810547 25.653942108154297 L 4.353476047515869 25.600000381469727 L 4.361881732940674 25.511743545532227 L 4.36299991607666 25.5 L 4.361868381500244 25.487552642822266 L 4.361866474151611 25.484066009521484 L 4.350304126739502 25.365039825439453 L 4.349996566772461 25.36288833618164 L 4.348953723907471 25.352371215820312 L 4.3470001220703125 25.332000732421875 L 4.346124172210693 25.3284969329834 L 4.345378875732422 25.32588768005371 L 4.344092845916748 25.321563720703125 L 4.335750102996826 25.293500900268555 L 4.339601516723633 25.290122985839844 L 4.342721939086914 25.28738784790039 L 4.386941432952881 25.248615264892578 L 4.570125102996826 25.08799934387207 L 4.58287239074707 25.07682228088379 L 4.607999801635742 25.054790496826172 L 4.6096954345703125 25.05330467224121 L 4.608523845672607 25.04609489440918 L 4.607999801635742 25.044221878051758 L 4.562360763549805 24.881061553955078 L 4.561523914337158 24.87813377380371 L 4.5615129470825195 24.878032684326172 L 4.554026126861572 24.808351516723633 L 4.551766395568848 24.803831100463867 L 4.459461688995361 24.620615005493164 L 4.458230972290039 24.61846160888672 L 4.457974910736084 24.617664337158203 L 4.4445977210998535 24.576000213623047 L 4.442565441131592 24.569669723510742 L 4.440061092376709 24.566608428955078 L 4.293227195739746 24.380159378051758 L 4.292451858520508 24.37836456298828 L 4.27665376663208 24.349376678466797 L 4.274701118469238 24.34760093688965 L 4.0960001945495605 24.19441032409668 L 4.070038318634033 24.17215347290039 L 4.06951904296875 24.17180824279785 L 4.069236755371094 24.171466827392578 L 4.0602335929870605 24.16059684753418 L 4.059220790863037 24.160051345825195 L 4.049660682678223 24.15468406677246 L 3.857304334640503 24.046695709228516 L 3.808000087738037 24.03160858154297 L 3.795619487762451 24.027891159057617 L 3.5840001106262207 24.005918502807617 L 3.5733911991119385 24.004817962646484 L 3.56828236579895 24.004331588745117 L 3.5015652179718018 23.99799919128418 L 3.3373913764953613 24.013582229614258 L 3.2071194648742676 24.027109146118164 L 3.105600118637085 24.05759048461914 L 3.072000026702881 24.067873001098633 L 2.9267079830169678 24.11233139038086 L 2.9231739044189453 24.113412857055664 L 2.719304323196411 24.222782135009766 L 2.718632698059082 24.223358154296875 L 2.6705973148345947 24.264535903930664 L 2.670391321182251 24.26480484008789 L 2.6684327125549316 24.268287658691406 L 2.6683380603790283 24.26850700378418 L 2.559999942779541 24.40607452392578 L 2.5079329013824463 24.47218894958496 L 2.499142646789551 24.48335075378418 L 2.4896609783172607 24.495391845703125 L 2.48856520652771 24.49673080444336 L 2.488537073135376 24.49681854248047 L 2.481823444366455 24.517728805541992 L 2.4817116260528564 24.518077850341797 L 2.481173038482666 24.519020080566406 L 2.4524660110473633 24.576000213623047 L 2.3817055225372314 24.716453552246094 L 2.3657922744750977 24.74803924560547 L 2.364969491958618 24.75104331970215 L 2.360072135925293 24.791595458984375 L 2.3601160049438477 24.793912887573242 L 2.3595447540283203 24.795961380004883 L 2.312835216522217 24.963550567626953 L 2.300504446029663 25.00779151916504 L 2.2988955974578857 25.01229476928711 L 2.2989766597747803 25.013273239135742 L 2.3038268089294434 25.071731567382812 L 2.30440092086792 25.074928283691406 L 2.3034110069274902 25.08799934387207 L 2.292412757873535 25.23323631286621 L 2.290008783340454 25.264982223510742 L 2.2895870208740234 25.27088737487793 L 2.3060309886932373 25.328563690185547 L 2.3109374046325684 25.345773696899414 L 2.312314033508301 25.350173950195312 L 2.3313913345336914 25.506086349487305 L 2.332434892654419 25.513391494750977 L 2.375884532928467 25.598615646362305 L 2.376800060272217 25.600000381469727 L 2.3788695335388184 25.603130340576172 L 2.417830467224121 25.72076988220215 L 2.4203174114227295 25.729473114013672 L 2.491374969482422 25.8200626373291 L 2.4934375286102295 25.824188232421875 L 2.538701295852661 25.904813766479492 L 2.545599937438965 25.913442611694336 L 2.559999942779541 25.925691604614258 L 2.647115468978882 25.999788284301758 L 2.6528985500335693 26.004222869873047 L 2.6909868717193604 26.048568725585938 L 2.699204444885254 26.05760955810547 L 2.7852723598480225 26.10599136352539 L 2.78665828704834 26.10677146911621 L 2.795959234237671 26.11199951171875 L 2.8309037685394287 26.131643295288086 L 2.8391740322113037 26.135217666625977 L 2.8439478874206543 26.13897705078125 L 2.859391212463379 26.151138305664062 L 2.869530439376831 26.159435272216797 L 2.8947346210479736 26.167526245117188 L 2.9599266052246094 26.188457489013672 L 2.969552516937256 26.19154930114746 L 2.9790420532226562 26.194595336914062 L 2.9992728233337402 26.201091766357422 L 3.007869005203247 26.20810317993164 L 3.0199999809265137 26.218000411987305 L 3.0269274711608887 26.22195816040039 L 3.0388033390045166 26.227895736694336 L 3.0403456687927246 26.22872543334961 L 3.061703681945801 26.240224838256836 L 3.072000026702881 26.245769500732422 L 3.1174561977386475 26.270246505737305 L 3.1339240074157715 26.27911376953125 L 3.1689999103546143 26.29800033569336 L 3.169793128967285 26.298227310180664 L 3.1755995750427246 26.299884796142578 L 3.1887989044189453 26.30459976196289 L 3.198122262954712 26.307401657104492 L 3.3320000171661377 26.347000122070312 L 3.338313102722168 26.347902297973633 L 3.3509395122528076 26.348804473876953 L 3.5 26.363000869750977 L 3.5069150924682617 26.363000869750977 L 3.5190162658691406 26.361270904541016 L 3.5418009757995605 26.359100341796875 L 3.5840001106262207 26.35505485534668 L 3.6679999828338623 26.347000122070312 L 3.685427188873291 26.34202003479004 L 3.7131597995758057 26.33368492126465 L 3.8310000896453857 26.29800033569336 L 3.835352659225464 26.29582405090332 L 3.8357880115509033 26.29560661315918 L 3.8461618423461914 26.290019989013672 L 3.87626051902771 26.27385902404785 L 3.9796838760375977 26.218170166015625 L 3.9800000190734863 26.218000411987305 L 3.9846110343933105 26.21492576599121 L 3.9930644035339355 26.20724105834961 L 4.023392200469971 26.182470321655273 L 4.0960001945495605 26.12323760986328 L 4.109774112701416 26.11199951171875 L 4.111000061035156 26.111000061035156 L 4.114705562591553 26.10655403137207 L 4.12137508392334 26.09840202331543 L 4.149078845977783 26.064483642578125 L 4.2179999351501465 25.979999542236328 L 4.22086238861084 25.974990844726562 L 4.225155830383301 25.96640396118164 L 4.247910022735596 25.92402458190918 L 4.297999858856201 25.83099937438965 L 4.298163890838623 25.830427169799805 L 4.299383640289307 25.82615852355957 L 4.302842140197754 25.81647300720215 L 4.306944847106934 25.802825927734375 L 4.317946434020996 25.76622772216797 L 4.3470001220703125 25.667999267578125 L 4.34766960144043 25.663312911987305 L 4.348339080810547 25.653942108154297 M 19.312313079833984 25.350173950195312 L 19.331390380859375 25.506086349487305 L 19.332435607910156 25.513391494750977 L 19.375885009765625 25.598615646362305 L 19.376800537109375 25.600000381469727 L 19.378870010375977 25.603130340576172 L 19.417829513549805 25.72076988220215 L 19.420316696166992 25.729473114013672 L 19.45599937438965 25.77496337890625 L 19.491374969482422 25.8200626373291 L 19.493436813354492 25.824188232421875 L 19.5387020111084 25.904813766479492 L 19.54560089111328 25.913442611694336 L 19.64711570739746 25.999788284301758 L 19.65289878845215 26.004222869873047 L 19.69098663330078 26.048568725585938 L 19.699203491210938 26.05760955810547 L 19.7852725982666 26.10599136352539 L 19.786659240722656 26.10677146911621 L 19.79595947265625 26.11199951171875 L 19.830904006958008 26.131643295288086 L 19.839174270629883 26.135217666625977 L 19.843948364257812 26.13897705078125 L 19.859392166137695 26.151138305664062 L 19.869529724121094 26.159435272216797 L 19.89473533630371 26.167526245117188 L 19.968000411987305 26.191049575805664 L 19.979042053222656 26.194595336914062 L 19.9992733001709 26.201091766357422 L 20.020000457763672 26.218000411987305 L 20.026927947998047 26.22195816040039 L 20.038803100585938 26.227895736694336 L 20.040346145629883 26.22872543334961 L 20.061702728271484 26.240224838256836 L 20.117456436157227 26.270246505737305 L 20.13392448425293 26.27911376953125 L 20.16900062561035 26.29800033569336 L 20.1697940826416 26.298227310180664 L 20.175600051879883 26.299884796142578 L 20.188798904418945 26.30459976196289 L 20.197351455688477 26.307170867919922 L 20.198122024536133 26.307401657104492 L 20.332000732421875 26.347000122070312 L 20.338314056396484 26.347902297973633 L 20.35093879699707 26.348804473876953 L 20.479999542236328 26.361095428466797 L 20.5 26.363000869750977 L 20.506914138793945 26.363000869750977 L 20.51901626586914 26.361270904541016 L 20.54180145263672 26.359100341796875 L 20.667999267578125 26.347000122070312 L 20.685426712036133 26.34202003479004 L 20.713159561157227 26.33368492126465 L 20.714082717895508 26.333404541015625 L 20.83099937438965 26.29800033569336 L 20.835351943969727 26.29582405090332 L 20.83578872680664 26.29560661315918 L 20.846162796020508 26.290019989013672 L 20.87626075744629 26.27385902404785 L 20.97968292236328 26.218170166015625 L 20.979999542236328 26.218000411987305 L 20.98461151123047 26.21492576599121 L 20.992000579833984 26.208208084106445 L 20.993064880371094 26.20724105834961 L 21.023391723632812 26.182470321655273 L 21.109773635864258 26.11199951171875 L 21.111000061035156 26.111000061035156 L 21.11470603942871 26.10655403137207 L 21.121376037597656 26.09840202331543 L 21.149078369140625 26.064483642578125 L 21.218000411987305 25.979999542236328 L 21.220861434936523 25.974990844726562 L 21.225154876708984 25.96640396118164 L 21.247909545898438 25.92402458190918 L 21.29800033569336 25.83099937438965 L 21.29816436767578 25.830427169799805 L 21.29938316345215 25.82615852355957 L 21.30284309387207 25.81647300720215 L 21.306943893432617 25.802825927734375 L 21.317947387695312 25.76622772216797 L 21.347000122070312 25.667999267578125 L 21.34766960144043 25.663312911987305 L 21.348339080810547 25.653942108154297 L 21.35347557067871 25.600000381469727 L 21.361881256103516 25.511743545532227 L 21.363000869750977 25.5 L 21.361867904663086 25.487552642822266 L 21.361865997314453 25.484066009521484 L 21.350303649902344 25.365039825439453 L 21.34999656677246 25.36288833618164 L 21.348953247070312 25.352371215820312 L 21.347000122070312 25.332000732421875 L 21.34612464904785 25.3284969329834 L 21.345378875732422 25.32588768005371 L 21.344093322753906 25.321563720703125 L 21.335750579833984 25.293500900268555 L 21.339601516723633 25.290122985839844 L 21.342721939086914 25.28738784790039 L 21.38694190979004 25.248615264892578 L 21.503999710083008 25.145978927612305 L 21.58287239074707 25.07682228088379 L 21.609695434570312 25.05330467224121 L 21.608524322509766 25.04609489440918 L 21.562360763549805 24.881061553955078 L 21.5615234375 24.87813377380371 L 21.561513900756836 24.878032684326172 L 21.554025650024414 24.808351516723633 L 21.55176544189453 24.803831100463867 L 21.503999710083008 24.709020614624023 L 21.459461212158203 24.620615005493164 L 21.45823097229004 24.61846160888672 L 21.457975387573242 24.617664337158203 L 21.444597244262695 24.576000213623047 L 21.44256591796875 24.569669723510742 L 21.440061569213867 24.566608428955078 L 21.29322624206543 24.380159378051758 L 21.292451858520508 24.37836456298828 L 21.276653289794922 24.349376678466797 L 21.274702072143555 24.34760093688965 L 21.242504119873047 24.31999969482422 L 21.070037841796875 24.17215347290039 L 21.06951904296875 24.17180824279785 L 21.069236755371094 24.171466827392578 L 21.06023406982422 24.16059684753418 L 21.059221267700195 24.160051345825195 L 21.049659729003906 24.15468406677246 L 20.992000579833984 24.122314453125 L 20.857303619384766 24.046695709228516 L 20.837377548217773 24.040597915649414 L 20.808000564575195 24.03160858154297 L 20.79561996459961 24.027891159057617 L 20.57339096069336 24.004817962646484 L 20.50156593322754 23.99799919128418 L 20.479999542236328 24.00004768371582 L 20.337390899658203 24.013582229614258 L 20.20711898803711 24.027109146118164 L 20.105600357055664 24.05759048461914 L 19.968000411987305 24.09969711303711 L 19.926708221435547 24.11233139038086 L 19.923173904418945 24.113412857055664 L 19.71930503845215 24.222782135009766 L 19.718631744384766 24.223358154296875 L 19.670597076416016 24.264535903930664 L 19.670391082763672 24.26480484008789 L 19.668432235717773 24.268287658691406 L 19.668338775634766 24.26850700378418 L 19.507932662963867 24.47218894958496 L 19.499143600463867 24.48335075378418 L 19.489660263061523 24.495391845703125 L 19.48856544494629 24.49673080444336 L 19.488536834716797 24.49681854248047 L 19.481822967529297 24.517728805541992 L 19.481712341308594 24.518077850341797 L 19.481172561645508 24.519020080566406 L 19.45599937438965 24.568984985351562 L 19.452465057373047 24.576000213623047 L 19.38170623779297 24.716453552246094 L 19.36579132080078 24.74803924560547 L 19.36496925354004 24.75104331970215 L 19.360071182250977 24.791595458984375 L 19.36011505126953 24.793912887573242 L 19.35954475402832 24.795961380004883 L 19.312835693359375 24.963550567626953 L 19.300504684448242 25.00779151916504 L 19.29889488220215 25.01229476928711 L 19.29897689819336 25.013273239135742 L 19.3038272857666 25.071731567382812 L 19.304401397705078 25.074928283691406 L 19.30341148376465 25.08799934387207 L 19.29241180419922 25.23323631286621 L 19.290008544921875 25.264982223510742 L 19.289587020874023 25.27088737487793 L 19.3060302734375 25.328563690185547 L 19.310937881469727 25.345773696899414 L 19.312313079833984 25.350173950195312 M 9 97 L 8.574429512023926 97 L 8.404215812683105 97.45945739746094 L 5.609894752502441 105 L 4.97891902923584 103.29729461669922 L 2.645991325378418 97 L 2.6453099250793457 97 L 2 97 L 2 27.003000259399414 L 2 27 L 2 26.624000549316406 L 2 25.600000381469727 L 2 24.576000213623047 L 2 23.99799919128418 L 2 9 L 2.996999979019165 9 L 5.002999782562256 9 L 6.001999855041504 9 L 9 9 L 15 9 L 17.99799919128418 9 L 18.99799919128418 9 L 21.003000259399414 9 L 22 9 L 22 14.003000259399414 L 22 23.99799919128418 L 22 24.576000213623047 L 22 24.77918815612793 L 22 24.7802677154541 L 22 25.600000381469727 L 22 26.624000549316406 L 22 27 L 22 27.003000259399414 L 22 40.00299835205078 L 22 93.00299835205078 L 22 97 L 21.574430465698242 97 L 21.404216766357422 97.45945739746094 L 18.609893798828125 105 L 17.978918075561523 103.29729461669922 L 15.645991325378418 97 L 15.645310401916504 97 L 15 97 L 15 29 L 9 29 L 9 40.00299835205078 L 9 94.00299835205078 L 9 97 M 18.964000701904297 90.07099914550781 L 18.5 89.99800109863281 L 18.035999298095703 90.07099914550781 L 17.955347061157227 90.11199951171875 L 17.617000579833984 90.28399658203125 L 17.284000396728516 90.61699676513672 L 17.070999145507812 91.03600311279297 L 16.99799919128418 91.5 L 17.070999145507812 91.96399688720703 L 17.284000396728516 92.38300323486328 L 17.617000579833984 92.71600341796875 L 18.035999298095703 92.92900085449219 L 18.43199920654297 92.99215698242188 L 18.5 93.00299835205078 L 18.964000701904297 92.92900085449219 L 19.382999420166016 92.71600341796875 L 19.715999603271484 92.38300323486328 L 19.929000854492188 91.96399688720703 L 20.003000259399414 91.5 L 19.929000854492188 91.03600311279297 L 19.715999603271484 90.61699676513672 L 19.382999420166016 90.28399658203125 L 19.044652938842773 90.11199951171875 L 18.964000701904297 90.07099914550781 M 4.964000225067139 13.928999900817871 L 5.002999782562256 13.909173965454102 L 5.382999897003174 13.715999603271484 L 5.716000080108643 13.383000373840332 L 5.928999900817871 12.96399974822998 L 6.001999855041504 12.5 L 5.96864652633667 12.288000106811523 L 5.928999900817871 12.03600025177002 L 5.716000080108643 11.616999626159668 L 5.382999897003174 11.284000396728516 L 5.002999782562256 11.090826034545898 L 4.964000225067139 11.071000099182129 L 4.5 10.998000144958496 L 4.035999774932861 11.071000099182129 L 3.617000102996826 11.284000396728516 L 3.2839999198913574 11.616999626159668 L 3.071000099182129 12.03600025177002 L 3.0308103561401367 12.288000106811523 L 2.996999979019165 12.5 L 3.071000099182129 12.96399974822998 L 3.2839999198913574 13.383000373840332 L 3.617000102996826 13.715999603271484 L 4.035999774932861 13.928999900817871 L 4.5 14.003000259399414 L 4.964000225067139 13.928999900817871 M 18.964000701904297 37.07099914550781 L 18.5 36.99800109863281 L 18.035999298095703 37.07099914550781 L 17.617000579833984 37.284000396728516 L 17.284000396728516 37.617000579833984 L 17.070999145507812 38.0359992980957 L 16.99799919128418 38.5 L 17.06281852722168 38.9119987487793 L 17.070999145507812 38.9640007019043 L 17.284000396728516 39.382999420166016 L 17.617000579833984 39.715999603271484 L 18.035999298095703 39.92900085449219 L 18.5 40.00299835205078 L 18.964000701904297 39.92900085449219 L 19.382999420166016 39.715999603271484 L 19.715999603271484 39.382999420166016 L 19.929000854492188 38.9640007019043 L 19.937294006347656 38.9119987487793 L 20.003000259399414 38.5 L 19.929000854492188 38.0359992980957 L 19.715999603271484 37.617000579833984 L 19.382999420166016 37.284000396728516 L 18.964000701904297 37.07099914550781 M 6.928999900817871 38.9640007019043 L 6.93729305267334 38.9119987487793 L 7.002999782562256 38.5 L 6.928999900817871 38.0359992980957 L 6.716000080108643 37.617000579833984 L 6.382999897003174 37.284000396728516 L 5.964000225067139 37.07099914550781 L 5.5 36.99800109863281 L 5.035999774932861 37.07099914550781 L 4.617000102996826 37.284000396728516 L 4.283999919891357 37.617000579833984 L 4.071000099182129 38.0359992980957 L 3.997999906539917 38.5 L 4.062819004058838 38.9119987487793 L 4.071000099182129 38.9640007019043 L 4.283999919891357 39.382999420166016 L 4.617000102996826 39.715999603271484 L 5.035999774932861 39.92900085449219 L 5.5 40.00299835205078 L 5.964000225067139 39.92900085449219 L 6.382999897003174 39.715999603271484 L 6.716000080108643 39.382999420166016 L 6.928999900817871 38.9640007019043 M 18.031352996826172 12.288000106811523 L 17.99799919128418 12.5 L 18.070999145507812 12.96399974822998 L 18.284000396728516 13.383000373840332 L 18.617000579833984 13.715999603271484 L 18.99799919128418 13.909682273864746 L 19.035999298095703 13.928999900817871 L 19.5 14.003000259399414 L 19.964000701904297 13.928999900817871 L 20.382999420166016 13.715999603271484 L 20.715999603271484 13.383000373840332 L 20.929000854492188 12.96399974822998 L 21.003000259399414 12.5 L 20.96919059753418 12.288000106811523 L 20.929000854492188 12.03600025177002 L 20.715999603271484 11.616999626159668 L 20.382999420166016 11.284000396728516 L 19.964000701904297 11.071000099182129 L 19.5 10.998000144958496 L 19.035999298095703 11.071000099182129 L 18.99799919128418 11.090317726135254 L 18.617000579833984 11.284000396728516 L 18.284000396728516 11.616999626159668 L 18.070999145507812 12.03600025177002 L 18.031352996826172 12.288000106811523 M 5.035999774932861 93.92900085449219 L 5.5 94.00299835205078 L 5.964000225067139 93.92900085449219 L 6.382999897003174 93.71600341796875 L 6.716000080108643 93.38300323486328 L 6.928999900817871 92.96399688720703 L 7.002999782562256 92.5 L 6.948775768280029 92.16000366210938 L 6.928999900817871 92.03600311279297 L 6.716000080108643 91.61699676513672 L 6.382999897003174 91.28399658203125 L 5.964000225067139 91.07099914550781 L 5.5 90.99800109863281 L 5.035999774932861 91.07099914550781 L 4.617000102996826 91.28399658203125 L 4.283999919891357 91.61699676513672 L 4.071000099182129 92.03600311279297 L 4.0514912605285645 92.16000366210938 L 3.997999906539917 92.5 L 4.071000099182129 92.96399688720703 L 4.283999919891357 93.38300323486328 L 4.617000102996826 93.71600341796875 L 5.035999774932861 93.92900085449219 z" fill="none" stroke="rgb(0,0,255)" stroke-width="0.01mm" />
</svg>